<mxfile host="65bd71144e" scale="4" border="0">
    <diagram id="Q3qlQcU-eKZE4sQw8D5M" name="Page-1">
        <mxGraphModel dx="1179" dy="527" grid="1" gridSize="10" guides="1" tooltips="1" connect="1" arrows="1" fold="1" page="1" pageScale="1" pageWidth="850" pageHeight="1100" math="0" shadow="0">
            <root>
                <mxCell id="0"/>
                <mxCell id="1" parent="0"/>
                <mxCell id="2" value="" style="childLayout=tableLayout;recursiveResize=0;shadow=0;fillColor=none;fontSize=20;strokeWidth=1;" vertex="1" parent="1">
                    <mxGeometry x="100" y="90" width="730" height="560.0000000000006" as="geometry"/>
                </mxCell>
                <mxCell id="3" value="" style="shape=tableRow;horizontal=0;startSize=0;swimlaneHead=0;swimlaneBody=0;top=0;left=0;bottom=0;right=0;dropTarget=0;collapsible=0;recursiveResize=0;expand=0;fontStyle=0;fillColor=none;strokeColor=inherit;fontSize=20;" vertex="1" parent="2">
                    <mxGeometry width="730" height="70" as="geometry"/>
                </mxCell>
                <mxCell id="4" value="Task Type" style="connectable=0;recursiveResize=0;strokeColor=#000000;fillColor=#CCCCCC;align=center;whiteSpace=wrap;html=1;fontSize=20;fontColor=#333333;fontStyle=1" vertex="1" parent="3">
                    <mxGeometry width="130" height="70" as="geometry">
                        <mxRectangle width="130" height="70" as="alternateBounds"/>
                    </mxGeometry>
                </mxCell>
                <mxCell id="5" value="Processing&lt;br style=&quot;font-size: 20px;&quot;&gt;Sytem" style="connectable=0;recursiveResize=0;strokeColor=#000000;fillColor=#CCCCCC;align=center;whiteSpace=wrap;html=1;fontSize=20;fontColor=#333333;fontStyle=1" vertex="1" parent="3">
                    <mxGeometry x="130" width="120" height="70" as="geometry">
                        <mxRectangle width="120" height="70" as="alternateBounds"/>
                    </mxGeometry>
                </mxCell>
                <mxCell id="6" value="Pre-emptable" style="connectable=0;recursiveResize=0;strokeColor=#000000;fillColor=#CCCCCC;align=center;whiteSpace=wrap;html=1;fontSize=20;fontColor=#333333;fontStyle=1" vertex="1" parent="3">
                    <mxGeometry x="250" width="100" height="70" as="geometry">
                        <mxRectangle width="100" height="70" as="alternateBounds"/>
                    </mxGeometry>
                </mxCell>
                <mxCell id="15" value="Trigger" style="connectable=0;recursiveResize=0;strokeColor=#000000;fillColor=#CCCCCC;align=center;whiteSpace=wrap;html=1;fontSize=20;fontColor=#333333;fontStyle=1" vertex="1" parent="3">
                    <mxGeometry x="350" width="120" height="70" as="geometry">
                        <mxRectangle width="120" height="70" as="alternateBounds"/>
                    </mxGeometry>
                </mxCell>
                <mxCell id="18" value="Explanation" style="connectable=0;recursiveResize=0;strokeColor=#000000;fillColor=#CCCCCC;align=center;whiteSpace=wrap;html=1;fontSize=20;fontColor=#333333;fontStyle=1" vertex="1" parent="3">
                    <mxGeometry x="470" width="260" height="70" as="geometry">
                        <mxRectangle width="260" height="70" as="alternateBounds"/>
                    </mxGeometry>
                </mxCell>
                <mxCell id="7" style="shape=tableRow;horizontal=0;startSize=0;swimlaneHead=0;swimlaneBody=0;top=0;left=0;bottom=0;right=0;dropTarget=0;collapsible=0;recursiveResize=0;expand=0;fontStyle=0;fillColor=none;strokeColor=inherit;fontSize=20;" vertex="1" parent="2">
                    <mxGeometry y="70" width="730" height="60" as="geometry"/>
                </mxCell>
                <mxCell id="8" value="HostLocal" style="connectable=0;recursiveResize=0;strokeColor=inherit;fillColor=none;align=center;whiteSpace=wrap;html=1;fontSize=20;" vertex="1" parent="7">
                    <mxGeometry width="130" height="60" as="geometry">
                        <mxRectangle width="130" height="60" as="alternateBounds"/>
                    </mxGeometry>
                </mxCell>
                <mxCell id="9" value="CPS" style="connectable=0;recursiveResize=0;strokeColor=inherit;fillColor=none;align=center;whiteSpace=wrap;html=1;fontSize=20;" vertex="1" parent="7">
                    <mxGeometry x="130" width="120" height="60" as="geometry">
                        <mxRectangle width="120" height="60" as="alternateBounds"/>
                    </mxGeometry>
                </mxCell>
                <mxCell id="10" value="Yes" style="connectable=0;recursiveResize=0;strokeColor=inherit;fillColor=none;align=center;whiteSpace=wrap;html=1;fontSize=20;" vertex="1" parent="7">
                    <mxGeometry x="250" width="100" height="60" as="geometry">
                        <mxRectangle width="100" height="60" as="alternateBounds"/>
                    </mxGeometry>
                </mxCell>
                <mxCell id="16" value="-" style="connectable=0;recursiveResize=0;strokeColor=inherit;fillColor=none;align=center;whiteSpace=wrap;html=1;fontSize=20;" vertex="1" parent="7">
                    <mxGeometry x="350" width="120" height="60" as="geometry">
                        <mxRectangle width="120" height="60" as="alternateBounds"/>
                    </mxGeometry>
                </mxCell>
                <mxCell id="19" value="Local classical processing (LCP)" style="connectable=0;recursiveResize=0;strokeColor=inherit;fillColor=none;align=center;whiteSpace=wrap;html=1;fontSize=20;" vertex="1" parent="7">
                    <mxGeometry x="470" width="260" height="60" as="geometry">
                        <mxRectangle width="260" height="60" as="alternateBounds"/>
                    </mxGeometry>
                </mxCell>
                <mxCell id="11" style="shape=tableRow;horizontal=0;startSize=0;swimlaneHead=0;swimlaneBody=0;top=0;left=0;bottom=0;right=0;dropTarget=0;collapsible=0;recursiveResize=0;expand=0;fontStyle=0;fillColor=none;strokeColor=inherit;fontSize=20;" vertex="1" parent="2">
                    <mxGeometry y="130" width="730" height="70" as="geometry"/>
                </mxCell>
                <mxCell id="12" value="HostEvent" style="connectable=0;recursiveResize=0;strokeColor=#000000;fillColor=#FFFAFA;align=center;whiteSpace=wrap;html=1;fontSize=20;fontColor=#000000;" vertex="1" parent="11">
                    <mxGeometry width="130" height="70" as="geometry">
                        <mxRectangle width="130" height="70" as="alternateBounds"/>
                    </mxGeometry>
                </mxCell>
                <mxCell id="13" value="CPS" style="connectable=0;recursiveResize=0;strokeColor=#000000;fillColor=#FFFAFA;align=center;whiteSpace=wrap;html=1;fontSize=20;fontColor=#000000;" vertex="1" parent="11">
                    <mxGeometry x="130" width="120" height="70" as="geometry">
                        <mxRectangle width="120" height="70" as="alternateBounds"/>
                    </mxGeometry>
                </mxCell>
                <mxCell id="14" value="Yes" style="connectable=0;recursiveResize=0;strokeColor=#000000;fillColor=#FFFAFA;align=center;whiteSpace=wrap;html=1;fontSize=20;fontColor=#000000;" vertex="1" parent="11">
                    <mxGeometry x="250" width="100" height="70" as="geometry">
                        <mxRectangle width="100" height="70" as="alternateBounds"/>
                    </mxGeometry>
                </mxCell>
                <mxCell id="17" value="Remote message &lt;br style=&quot;font-size: 20px;&quot;&gt;arrival" style="connectable=0;recursiveResize=0;strokeColor=#000000;fillColor=#FFFAFA;align=center;whiteSpace=wrap;html=1;fontSize=20;fontColor=#000000;" vertex="1" parent="11">
                    <mxGeometry x="350" width="120" height="70" as="geometry">
                        <mxRectangle width="120" height="70" as="alternateBounds"/>
                    </mxGeometry>
                </mxCell>
                <mxCell id="20" value="LCP starting with&lt;br&gt;&quot;receive classical message&quot;" style="connectable=0;recursiveResize=0;strokeColor=#000000;fillColor=#FFFAFA;align=center;whiteSpace=wrap;html=1;fontSize=20;fontColor=#000000;" vertex="1" parent="11">
                    <mxGeometry x="470" width="260" height="70" as="geometry">
                        <mxRectangle width="260" height="70" as="alternateBounds"/>
                    </mxGeometry>
                </mxCell>
                <mxCell id="21" style="shape=tableRow;horizontal=0;startSize=0;swimlaneHead=0;swimlaneBody=0;top=0;left=0;bottom=0;right=0;dropTarget=0;collapsible=0;recursiveResize=0;expand=0;fontStyle=0;fillColor=none;strokeColor=inherit;fontSize=20;" vertex="1" parent="2">
                    <mxGeometry y="200" width="730" height="70" as="geometry"/>
                </mxCell>
                <mxCell id="22" value="PreCall" style="connectable=0;recursiveResize=0;strokeColor=inherit;fillColor=none;align=center;whiteSpace=wrap;html=1;fontSize=20;" vertex="1" parent="21">
                    <mxGeometry width="130" height="70" as="geometry">
                        <mxRectangle width="130" height="70" as="alternateBounds"/>
                    </mxGeometry>
                </mxCell>
                <mxCell id="23" value="CPS" style="connectable=0;recursiveResize=0;strokeColor=inherit;fillColor=none;align=center;whiteSpace=wrap;html=1;fontSize=20;" vertex="1" parent="21">
                    <mxGeometry x="130" width="120" height="70" as="geometry">
                        <mxRectangle width="120" height="70" as="alternateBounds"/>
                    </mxGeometry>
                </mxCell>
                <mxCell id="24" value="Yes" style="connectable=0;recursiveResize=0;strokeColor=inherit;fillColor=none;align=center;whiteSpace=wrap;html=1;fontSize=20;" vertex="1" parent="21">
                    <mxGeometry x="250" width="100" height="70" as="geometry">
                        <mxRectangle width="100" height="70" as="alternateBounds"/>
                    </mxGeometry>
                </mxCell>
                <mxCell id="25" value="-" style="connectable=0;recursiveResize=0;strokeColor=inherit;fillColor=none;align=center;whiteSpace=wrap;html=1;fontSize=20;" vertex="1" parent="21">
                    <mxGeometry x="350" width="120" height="70" as="geometry">
                        <mxRectangle width="120" height="70" as="alternateBounds"/>
                    </mxGeometry>
                </mxCell>
                <mxCell id="26" value="Allocate shared memory and&lt;br&gt;write args for LR or RR call" style="connectable=0;recursiveResize=0;strokeColor=inherit;fillColor=none;align=center;whiteSpace=wrap;html=1;fontSize=20;" vertex="1" parent="21">
                    <mxGeometry x="470" width="260" height="70" as="geometry">
                        <mxRectangle width="260" height="70" as="alternateBounds"/>
                    </mxGeometry>
                </mxCell>
                <mxCell id="27" style="shape=tableRow;horizontal=0;startSize=0;swimlaneHead=0;swimlaneBody=0;top=0;left=0;bottom=0;right=0;dropTarget=0;collapsible=0;recursiveResize=0;expand=0;fontStyle=0;fillColor=none;strokeColor=inherit;fontSize=20;" vertex="1" parent="2">
                    <mxGeometry y="270" width="730" height="60" as="geometry"/>
                </mxCell>
                <mxCell id="28" value="PostCall" style="connectable=0;recursiveResize=0;strokeColor=#000000;fillColor=#FFFAFA;align=center;whiteSpace=wrap;html=1;fontSize=20;fontColor=#000000;" vertex="1" parent="27">
                    <mxGeometry width="130" height="60" as="geometry">
                        <mxRectangle width="130" height="60" as="alternateBounds"/>
                    </mxGeometry>
                </mxCell>
                <mxCell id="29" value="CPS" style="connectable=0;recursiveResize=0;strokeColor=#000000;fillColor=#FFFAFA;align=center;whiteSpace=wrap;html=1;fontSize=20;fontColor=#000000;" vertex="1" parent="27">
                    <mxGeometry x="130" width="120" height="60" as="geometry">
                        <mxRectangle width="120" height="60" as="alternateBounds"/>
                    </mxGeometry>
                </mxCell>
                <mxCell id="30" value="Yes" style="connectable=0;recursiveResize=0;strokeColor=#000000;fillColor=#FFFAFA;align=center;whiteSpace=wrap;html=1;fontSize=20;fontColor=#000000;" vertex="1" parent="27">
                    <mxGeometry x="250" width="100" height="60" as="geometry">
                        <mxRectangle width="100" height="60" as="alternateBounds"/>
                    </mxGeometry>
                </mxCell>
                <mxCell id="31" value="-" style="connectable=0;recursiveResize=0;strokeColor=#000000;fillColor=#FFFAFA;align=center;whiteSpace=wrap;html=1;fontSize=20;fontColor=#000000;" vertex="1" parent="27">
                    <mxGeometry x="350" width="120" height="60" as="geometry">
                        <mxRectangle width="120" height="60" as="alternateBounds"/>
                    </mxGeometry>
                </mxCell>
                <mxCell id="32" value="Free shared memory and&lt;br&gt;read results of LR or RR call" style="connectable=0;recursiveResize=0;strokeColor=#000000;fillColor=#FFFAFA;align=center;whiteSpace=wrap;html=1;fontSize=20;fontColor=#000000;" vertex="1" parent="27">
                    <mxGeometry x="470" width="260" height="60" as="geometry">
                        <mxRectangle width="260" height="60" as="alternateBounds"/>
                    </mxGeometry>
                </mxCell>
                <mxCell id="33" style="shape=tableRow;horizontal=0;startSize=0;swimlaneHead=0;swimlaneBody=0;top=0;left=0;bottom=0;right=0;dropTarget=0;collapsible=0;recursiveResize=0;expand=0;fontStyle=0;fillColor=none;strokeColor=inherit;fontSize=20;" vertex="1" parent="2">
                    <mxGeometry y="330" width="730" height="60" as="geometry"/>
                </mxCell>
                <mxCell id="34" value="LocalRoutine" style="connectable=0;recursiveResize=0;strokeColor=inherit;fillColor=none;align=center;whiteSpace=wrap;html=1;fontSize=20;" vertex="1" parent="33">
                    <mxGeometry width="130" height="60" as="geometry">
                        <mxRectangle width="130" height="60" as="alternateBounds"/>
                    </mxGeometry>
                </mxCell>
                <mxCell id="35" value="QPS" style="connectable=0;recursiveResize=0;strokeColor=inherit;fillColor=none;align=center;whiteSpace=wrap;html=1;fontSize=20;" vertex="1" parent="33">
                    <mxGeometry x="130" width="120" height="60" as="geometry">
                        <mxRectangle width="120" height="60" as="alternateBounds"/>
                    </mxGeometry>
                </mxCell>
                <mxCell id="36" value="No" style="connectable=0;recursiveResize=0;strokeColor=inherit;fillColor=none;align=center;whiteSpace=wrap;html=1;fontSize=20;" vertex="1" parent="33">
                    <mxGeometry x="250" width="100" height="60" as="geometry">
                        <mxRectangle width="100" height="60" as="alternateBounds"/>
                    </mxGeometry>
                </mxCell>
                <mxCell id="37" value="-" style="connectable=0;recursiveResize=0;strokeColor=inherit;fillColor=none;align=center;whiteSpace=wrap;html=1;fontSize=20;" vertex="1" parent="33">
                    <mxGeometry x="350" width="120" height="60" as="geometry">
                        <mxRectangle width="120" height="60" as="alternateBounds"/>
                    </mxGeometry>
                </mxCell>
                <mxCell id="38" value="Execute a full Local Routine (LR)" style="connectable=0;recursiveResize=0;strokeColor=inherit;fillColor=none;align=center;whiteSpace=wrap;html=1;fontSize=20;" vertex="1" parent="33">
                    <mxGeometry x="470" width="260" height="60" as="geometry">
                        <mxRectangle width="260" height="60" as="alternateBounds"/>
                    </mxGeometry>
                </mxCell>
                <mxCell id="39" style="shape=tableRow;horizontal=0;startSize=0;swimlaneHead=0;swimlaneBody=0;top=0;left=0;bottom=0;right=0;dropTarget=0;collapsible=0;recursiveResize=0;expand=0;fontStyle=0;fillColor=none;strokeColor=inherit;fontSize=20;" vertex="1" parent="2">
                    <mxGeometry y="390" width="730" height="80" as="geometry"/>
                </mxCell>
                <mxCell id="40" value="SinglePair/&lt;br style=&quot;font-size: 20px;&quot;&gt;MultiPair" style="connectable=0;recursiveResize=0;strokeColor=#000000;fillColor=#FFFAFA;align=center;whiteSpace=wrap;html=1;fontSize=20;fontColor=#000000;" vertex="1" parent="39">
                    <mxGeometry width="130" height="80" as="geometry">
                        <mxRectangle width="130" height="80" as="alternateBounds"/>
                    </mxGeometry>
                </mxCell>
                <mxCell id="41" value="QPS" style="connectable=0;recursiveResize=0;strokeColor=#000000;fillColor=#FFFAFA;align=center;whiteSpace=wrap;html=1;fontSize=20;fontColor=#000000;" vertex="1" parent="39">
                    <mxGeometry x="130" width="120" height="80" as="geometry">
                        <mxRectangle width="120" height="80" as="alternateBounds"/>
                    </mxGeometry>
                </mxCell>
                <mxCell id="42" value="No" style="connectable=0;recursiveResize=0;strokeColor=#000000;fillColor=#FFFAFA;align=center;whiteSpace=wrap;html=1;fontSize=20;fontColor=#000000;" vertex="1" parent="39">
                    <mxGeometry x="250" width="100" height="80" as="geometry">
                        <mxRectangle width="100" height="80" as="alternateBounds"/>
                    </mxGeometry>
                </mxCell>
                <mxCell id="43" value="Start of slot&lt;br style=&quot;font-size: 20px;&quot;&gt;in network&lt;br style=&quot;font-size: 20px;&quot;&gt;schedule" style="connectable=0;recursiveResize=0;strokeColor=#000000;fillColor=#FFFAFA;align=center;whiteSpace=wrap;html=1;fontSize=20;fontColor=#000000;" vertex="1" parent="39">
                    <mxGeometry x="350" width="120" height="80" as="geometry">
                        <mxRectangle width="120" height="80" as="alternateBounds"/>
                    </mxGeometry>
                </mxCell>
                <mxCell id="44" value="Create one or more pairs for a Request Routine (RR)" style="connectable=0;recursiveResize=0;strokeColor=#000000;fillColor=#FFFAFA;align=center;whiteSpace=wrap;html=1;fontSize=20;fontColor=#000000;" vertex="1" parent="39">
                    <mxGeometry x="470" width="260" height="80" as="geometry">
                        <mxRectangle width="260" height="80" as="alternateBounds"/>
                    </mxGeometry>
                </mxCell>
                <mxCell id="45" style="shape=tableRow;horizontal=0;startSize=0;swimlaneHead=0;swimlaneBody=0;top=0;left=0;bottom=0;right=0;dropTarget=0;collapsible=0;recursiveResize=0;expand=0;fontStyle=0;fillColor=none;strokeColor=inherit;fontSize=20;" vertex="1" parent="2">
                    <mxGeometry y="470" width="730" height="90" as="geometry"/>
                </mxCell>
                <mxCell id="46" value="SPCallback/&lt;br style=&quot;font-size: 20px;&quot;&gt;MPCallback" style="connectable=0;recursiveResize=0;strokeColor=inherit;fillColor=none;align=center;whiteSpace=wrap;html=1;fontSize=20;" vertex="1" parent="45">
                    <mxGeometry width="130" height="90" as="geometry">
                        <mxRectangle width="130" height="90" as="alternateBounds"/>
                    </mxGeometry>
                </mxCell>
                <mxCell id="47" value="QPS" style="connectable=0;recursiveResize=0;strokeColor=inherit;fillColor=none;align=center;whiteSpace=wrap;html=1;fontSize=20;" vertex="1" parent="45">
                    <mxGeometry x="130" width="120" height="90" as="geometry">
                        <mxRectangle width="120" height="90" as="alternateBounds"/>
                    </mxGeometry>
                </mxCell>
                <mxCell id="48" value="No" style="connectable=0;recursiveResize=0;strokeColor=inherit;fillColor=none;align=center;whiteSpace=wrap;html=1;fontSize=20;" vertex="1" parent="45">
                    <mxGeometry x="250" width="100" height="90" as="geometry">
                        <mxRectangle width="100" height="90" as="alternateBounds"/>
                    </mxGeometry>
                </mxCell>
                <mxCell id="49" value="-" style="connectable=0;recursiveResize=0;strokeColor=inherit;fillColor=none;align=center;whiteSpace=wrap;html=1;fontSize=20;" vertex="1" parent="45">
                    <mxGeometry x="350" width="120" height="90" as="geometry">
                        <mxRectangle width="120" height="90" as="alternateBounds"/>
                    </mxGeometry>
                </mxCell>
                <mxCell id="50" value="Execute a callback LR after creating one or more pairs &lt;br&gt;of an RR" style="connectable=0;recursiveResize=0;strokeColor=inherit;fillColor=none;align=center;whiteSpace=wrap;html=1;fontSize=20;" vertex="1" parent="45">
                    <mxGeometry x="470" width="260" height="90" as="geometry">
                        <mxRectangle width="260" height="90" as="alternateBounds"/>
                    </mxGeometry>
                </mxCell>
            </root>
        </mxGraphModel>
    </diagram>
</mxfile>